<?xml version="1.0" standalone="no"?>
<!DOCTYPE svg PUBLIC "-//W3C//DTD SVG 20010904//EN"
 "http://www.w3.org/TR/2001/REC-SVG-20010904/DTD/svg10.dtd">
<svg version="1.0" xmlns="http://www.w3.org/2000/svg"
 width="243.000000pt" height="70.000000pt" viewBox="0 0 243.000000 70.000000"
 preserveAspectRatio="xMidYMid meet">

<g transform="translate(0.000000,70.000000) scale(0.100000,-0.100000)"
fill="#000000" stroke="none">
<path d="M1796 605 c-3 -9 -6 -29 -6 -43 0 -15 -6 -48 -14 -73 -18 -58 -50
-268 -43 -275 12 -13 25 8 31 51 7 41 10 45 42 51 19 3 36 5 37 3 2 -2 12 -33
23 -68 11 -36 25 -66 32 -69 17 -5 15 24 -8 92 -13 39 -17 63 -10 70 6 6 4 13
-5 20 -9 7 -19 44 -26 96 -16 121 -23 153 -35 157 -7 2 -14 -3 -18 -12z m33
-203 c8 -41 7 -44 -17 -53 -13 -5 -27 -7 -30 -5 -3 3 1 47 9 98 14 92 14 93
22 48 4 -25 12 -64 16 -88z"/>
<path d="M1340 558 c0 -98 49 -318 71 -318 12 0 12 3 -10 105 -10 50 -22 117
-26 150 -3 33 -8 68 -11 78 -9 29 -24 19 -24 -15z"/>
<path d="M656 521 l6 -59 -40 -20 c-27 -13 -59 -19 -102 -18 -55 2 -63 -1 -70
-19 -8 -20 3 -105 15 -126 4 -5 11 -9 17 -9 6 0 7 18 3 50 -5 34 -3 55 5 65
13 16 55 21 45 6 -14 -24 20 -20 65 8 28 17 56 31 64 31 8 0 18 -23 26 -62 17
-90 19 -93 32 -80 10 10 9 24 -18 147 -4 15 4 24 36 39 52 25 52 41 -1 19 -47
-18 -54 -14 -64 49 -11 63 -27 45 -19 -21z"/>
<path d="M225 543 c33 -131 46 -263 26 -263 -22 0 -101 122 -101 155 0 8 -7
15 -16 15 -37 0 26 -137 93 -202 26 -26 36 -29 45 -20 30 30 -6 342 -39 342
-12 0 -14 -7 -8 -27z"/>
<path d="M314 509 c-3 -6 -1 -15 7 -19 14 -9 49 5 49 20 0 14 -47 13 -56 -1z"/>
<path d="M2180 504 c0 -10 7 -14 22 -12 32 5 35 28 4 28 -17 0 -26 -5 -26 -16z"/>
<path d="M1091 424 c-29 -37 -44 -96 -31 -128 12 -32 23 -33 47 -2 l19 23 28
-23 c15 -13 39 -24 53 -24 53 0 123 50 123 88 0 9 -16 -1 -40 -22 -62 -56
-124 -46 -136 22 -7 44 -26 92 -36 92 -3 0 -16 -12 -27 -26z m29 -41 c-1 -24
-26 -68 -32 -57 -7 13 11 74 22 74 6 0 10 -8 10 -17z"/>
<path d="M2020 444 c-58 -19 -90 -39 -90 -56 0 -23 4 -23 40 4 16 12 33 19 36
15 4 -3 11 -48 15 -99 9 -98 26 -198 34 -206 15 -16 18 18 6 95 -11 79 -11 87
5 96 9 5 34 25 55 44 45 40 50 74 17 97 -21 15 -85 20 -118 10z m107 -41 c5
-11 -5 -27 -32 -50 -21 -18 -42 -30 -46 -27 -10 6 -12 78 -2 87 14 15 74 7 80
-10z"/>
<path d="M910 394 c0 -36 -15 -74 -29 -74 -11 0 -31 46 -31 70 0 12 -7 20 -16
20 -12 0 -14 -7 -9 -32 10 -45 33 -88 51 -95 8 -3 23 2 33 11 13 12 21 14 26
7 10 -17 41 -13 66 10 l24 20 -36 -6 c-42 -6 -49 3 -49 66 0 28 -4 39 -15 39
-11 0 -15 -11 -15 -36z"/>
<path d="M331 388 c0 -7 8 -35 17 -62 17 -51 42 -73 42 -39 0 35 -32 113 -46
113 -8 0 -14 -6 -13 -12z"/>
<path d="M2196 391 c-3 -4 3 -32 14 -62 11 -29 20 -55 20 -56 0 -2 5 -3 10 -3
15 0 12 45 -6 90 -16 39 -27 49 -38 31z"/>
</g>
</svg>
