<svg xmlns="http://www.w3.org/2000/svg" version="1.1" xmlns:xlink="http://www.w3.org/1999/xlink" width="470.10374241719217" height="200" viewBox="0.6800000071525574 17.174285888671875 124.04000091552734 47.02571105957031"><path d="M12.28 26.40L12.28 26.40L9.96 29L9.28 29.44L5.60 35.16Q5.36 35.76 4.84 36.84L4.84 36.84Q4.16 38.20 4 38.56L4 38.56Q3.36 40.36 2.96 41.26Q2.56 42.16 2 42.68L2 42.68L1.88 42.72Q1.76 42.28 1.68 41.60Q1.60 40.92 1.60 39.80L1.60 39.80L1.60 39.08L1.56 37.96Q1.56 36.72 1.48 35.68L1.48 35.68Q1.20 32 1.20 31.60L1.20 31.60Q1.20 30.84 0.98 29.86Q0.76 28.88 0.68 28.52L0.68 28.52Q0.72 28.36 0.84 28.16Q0.96 27.96 0.96 27.84L0.96 27.84Q1.28 27.24 1.68 27.24L1.68 27.24Q2 27.92 2.14 29.26Q2.28 30.60 2.50 32.94Q2.72 35.28 2.72 38.80L2.72 38.80L2.96 38.84L3.68 37.36L4.92 35.16L5.76 33.48L7.08 31.80Q7.40 31.16 7.80 30.60L7.80 30.60Q8.36 29.80 8.68 29.36L8.68 29.36Q8.84 29.12 9.60 28.48Q10.36 27.84 10.56 27.32L10.56 27.32L11.12 26.76L12.16 26.24Q12.28 26.32 12.28 26.40ZM20 27.96L20 27.96Q19.68 28.68 18.88 28.68L18.88 28.68L17.20 26.92L17.20 26.68L18 25.64L18.52 25.60L18.80 26.20Q19.48 26.40 19.76 26.72Q20.04 27.04 20.04 27.52L20.04 27.52Q20.04 27.80 20 27.96ZM15.24 40.68L16.84 40.16Q16.32 41.04 15.32 41.48L15.32 41.48Q14.84 41.68 13.32 42.04L13.32 42.04L12.88 42.04Q12.72 41.96 12.52 41.76L12.52 41.76Q12.48 41.72 11.88 41L11.88 41Q11.80 40.68 11.76 40.38Q11.72 40.08 11.72 39.84L11.72 39.84Q11.72 38.44 12.64 36.68L12.64 36.68Q13.44 35.28 14.24 33.88L14.24 33.88Q14.52 33.80 14.76 33.56Q15 33.32 15.16 33.24L15.16 33.24L15.36 33.96L14.20 35.76Q13.96 36 13.96 36.60L13.96 36.60Q13.36 37.68 13.36 38.88L13.36 38.88Q13.36 39.52 13.44 39.84L13.44 39.84Q13.68 40.44 13.96 40.56L13.96 40.56L15.24 40.68ZM31.60 39.28L31.60 39.28Q31.60 39.52 30.16 40.68L30.16 40.68Q29.68 41.04 28.68 41.84L28.68 41.84Q25.84 42.72 24.88 42.92Q23.92 43.12 22.76 43.12L22.76 43.12Q22.20 42.80 21.72 42.40L21.72 42.40Q21.08 41.88 20.84 41.44L20.84 41.44Q20.76 41.24 20.76 40.76L20.76 40.76Q20.76 40.12 21.20 38.92Q21.64 37.72 21.72 37.12L21.72 37.12Q21.96 37.08 22.04 36.78Q22.12 36.48 22.12 36.08L22.12 36.08L21.08 35.12Q20.60 36.36 19.48 37.56L19.48 37.56Q18.12 39 16.80 40.40L16.80 40.40L15.52 40.92L15.60 39.92Q17.12 38.80 17.36 38.28L17.36 38.28Q19.32 36.20 19.60 35.84L19.60 35.84Q20.72 34.36 20.72 32.80L20.72 32.80Q20.72 32.60 20.64 32.04L20.64 32.04Q20.84 31.80 21.48 31.28L21.48 31.28Q21.68 31.12 22.08 30.84L22.08 30.84L22.36 31.28Q22.28 31.52 22.20 31.56L22.20 31.56Q22.20 32.76 22.60 33.56Q23 34.36 23.80 35.12L23.80 35.12Q23.16 37.56 22.56 39.96L22.56 39.96Q22.56 40.32 22.60 40.44Q22.64 40.56 22.96 40.82Q23.28 41.08 23.44 41.28L23.44 41.28Q24.28 41.52 25.12 41.52L25.12 41.52Q26.16 41.52 27.22 41.24Q28.28 40.96 29.48 40.48L29.48 40.48Q29.52 40.28 30.50 39.66Q31.48 39.04 31.60 39.28ZM35.40 30.48L42.48 29.52Q42.12 30.04 41.38 30.28Q40.64 30.52 39.76 30.52L39.76 30.52Q38.76 30.88 36.84 31.22Q34.92 31.56 34.16 31.80L34.16 31.80L34.12 32.24L33.64 32.88Q33.64 33.20 33.38 33.56Q33.12 33.92 33 34.12L33 34.12Q32.40 35.12 31.80 35.84L31.80 35.84Q31.08 36.72 30.32 37.32L30.32 37.32Q30.12 37.52 30.12 37.96L30.12 37.96Q30.40 39.44 30.80 40.06Q31.20 40.68 31.80 40.96L31.80 40.96L34.16 40.92Q33.72 41.12 33.18 41.40Q32.64 41.68 32.16 41.88L32.16 41.88L31.28 42Q29.88 42 29.08 40.96L29.08 40.96L28.52 39.04Q28.40 38.88 28.36 38.76Q28.32 38.64 28.32 38.56L28.32 38.56Q28.84 38.04 29.02 36.76Q29.20 35.48 29.44 33.92L29.44 33.92L29.60 33.80L30.08 32.72L30 32.56L28.68 32.56L28.56 32.36Q29.16 31.20 30.48 31.20L30.48 31.20Q31 30.24 32.80 26.44L32.80 26.44Q33.48 25 34.16 23.72L34.16 23.72L36.32 22.72Q36.56 23.36 36.66 23.86Q36.76 24.36 36.76 25L36.76 25Q36.76 25.60 36.68 25.92L36.68 25.92Q36.68 26.68 36.36 27.60L36.36 27.60Q35.44 30.28 35.40 30.48L35.40 30.48ZM35.20 28.28L35.44 25.08L34 26.76L32.40 30.60Q32.48 30.80 32.64 30.76L32.64 30.76L34.16 30.36L34.60 29.88L35.20 28.28ZM32.52 33.88L33.44 32.20L31.76 32.44Q31.28 33.60 30.80 34.76L30.80 34.76Q30.80 34.88 30.66 35.44Q30.52 36 30.52 36.32L30.52 36.32L30.80 36.12L32.52 33.88ZM49.32 40.12L49.88 40.04Q49.76 40.32 49.76 40.48L49.76 40.48Q49.12 40.92 48.32 41.32L48.32 41.32Q47.88 41.52 46.68 42L46.68 42Q46.36 42.16 45.96 42.16L45.96 42.16Q45.04 42.16 44.44 41.28L44.44 41.28L44.04 39.04Q42.68 39.92 41.36 40.80L41.36 40.80Q40.56 41.12 40.06 41.30Q39.56 41.48 39 41.48L39 41.48Q38.48 41.48 38.12 41.28L38.12 41.28Q37.88 41.04 37.64 40.80L37.64 40.80L37 40.92L36.68 40.32L38.12 39.60L39.48 36.36Q39.76 35.88 39.82 35.68Q39.88 35.48 39.88 35.16L39.88 35.16Q40.64 33.88 41.72 33.40L41.72 33.40L42.04 33.44Q42.04 33.92 41.48 34.72Q40.92 35.52 40.92 36.08L40.92 36.08L39.68 38.72Q39.56 39.56 39.56 40L39.56 40Q39.56 40.16 39.64 40.48L39.64 40.48Q39.80 40.52 40.04 40.52L40.04 40.52Q40.60 40.52 41.48 40.04Q42.36 39.56 42.56 39.52L42.56 39.52Q43.16 39.20 43.96 38.40L43.96 38.40Q44.36 38 44.80 37.56L44.80 37.56Q44.96 37.16 45.30 36.58Q45.64 36 46.04 35.36L46.04 35.36L47.60 34.44Q47.68 34.64 47.60 35L47.60 35Q47.32 35.56 47.10 36.18Q46.88 36.80 46.68 37.56L46.68 37.56Q46.40 38 46.34 38.92Q46.28 39.84 46.20 40.12L46.20 40.12L46.68 40.96Q46.84 41.12 47.28 41.12L47.28 41.12Q47.80 41.04 48.34 40.76Q48.88 40.48 49.32 40.12L49.32 40.12ZM63.16 38.44L63.16 38.44Q63 38.60 62.52 38.92Q62.04 39.24 61.76 39.44L61.76 39.44Q61.48 39.52 59.80 40.24L59.80 40.24Q58.60 40.76 57.64 40.76L57.64 40.76Q57.48 40.76 57 40.68L57 40.68L56.76 40.36Q56.44 39.96 56.44 39.32L56.44 39.32Q56.48 38.72 56.48 38.48L56.48 38.48Q56.48 38.32 56.40 38.08L56.40 38.08Q55.48 38.92 55.04 39.32Q54.60 39.72 54.08 40.36L54.08 40.36Q53.36 40.88 52.64 41.44L52.64 41.44Q51.76 42.04 50.92 42.04L50.92 42.04L50.48 41.80Q50.16 41.20 50.16 40.40L50.16 40.40Q50.16 39.64 50.36 38.82Q50.56 38 50.76 37.20L50.76 37.20Q50.84 37.08 50.92 36.92L50.92 36.92Q51.36 36.08 51.80 35.24L51.80 35.24Q52.32 34.40 52.96 33.80L52.96 33.80Q53.12 33.20 53.68 32.60L53.68 32.60Q54 32.28 54.84 31.60L54.84 31.60Q55.56 31.20 56.28 30.92Q57 30.64 57.72 30.64L57.72 30.64Q58.04 30.64 58.20 30.68L58.20 30.68Q59.24 30.92 59.64 31.76L59.64 31.76Q60.04 32.28 60.04 33L60.04 33Q60.04 33.88 59.52 34.60L59.52 34.60L59.08 34.76Q58.84 35.04 58.44 35.80Q58.04 36.56 57.68 37.52L57.68 37.52L57.60 38.40Q57.60 39.12 57.80 39.44L57.80 39.44Q58.32 39.72 58.88 39.72L58.88 39.72Q59.60 39.72 61.06 39.10Q62.52 38.48 63.16 38.44ZM58.80 33.72L58.80 33.72Q58.80 33.12 58.16 32.32L58.16 32.32Q58.08 32.20 57.80 31.96L57.80 31.96Q57.36 31.68 56.84 31.68L56.84 31.68Q56.32 31.68 55.64 31.98Q54.96 32.28 54.64 32.44L54.64 32.44Q54.12 33.12 53.58 33.82Q53.04 34.52 52.72 35.28L52.72 35.28Q52.56 35.48 52.36 36.02Q52.16 36.56 52 36.68L52 36.68Q52 37.12 51.70 37.68Q51.40 38.24 51.40 38.60L51.40 38.60Q51.20 39.16 51.20 39.92L51.20 39.92Q51.20 40.60 51.36 41.04L51.36 41.04L52.68 40.88Q52.88 40.64 54.84 38.96L54.84 38.96Q56.24 37.72 56.76 36.68L56.76 36.68L57.24 35.72Q57.52 35.24 58.16 34.56Q58.80 33.88 58.80 33.72ZM75.88 17.20L75.88 17.20Q75.88 18.08 75.44 19.06Q75.00 20.04 74.60 20.92L74.60 20.92Q74.44 21.84 72.68 23.92L72.68 23.92Q71.64 25.16 71.16 26L71.16 26Q69.72 28.04 66.80 31.12L66.80 31.12Q64.88 33.08 64.04 33.96L64.04 33.96Q63.96 34.16 63.96 34.32Q63.96 34.48 63.96 34.56L63.96 34.56Q63.96 35 63.60 35.24L63.60 35.24Q63.52 35.32 63.52 35.64L63.52 35.64Q63.52 36.12 63.44 36.36L63.44 36.36Q63.44 37.92 63.90 39.12Q64.36 40.32 65.40 41.16L65.40 41.16Q65.84 41.40 66.34 41.50Q66.84 41.60 67.56 41.60L67.56 41.60L68.28 41.56L69.16 41.64Q68.36 42.36 67.22 42.44Q66.08 42.52 65.32 42.60L65.32 42.60Q64.60 42.28 64.24 42.08L64.24 42.08Q63.08 41.44 62.64 40.92L62.64 40.92Q62.56 40.52 62.52 40.16L62.52 40.16Q62.16 39.60 62.00 38.98Q61.84 38.36 61.84 37.64L61.84 37.64Q61.84 36.32 62.44 34.44L62.44 34.44Q62.92 33.12 63.12 32.52L63.12 32.52Q63.56 32.04 64.00 30.96Q64.44 29.88 64.84 29.44L64.84 29.44L66.08 26.84L66.60 25.76L71.80 19.84Q73.00 18.80 74.24 17.76L74.24 17.76Q74.44 17.68 74.76 17.52L74.76 17.52Q75.52 17.08 75.88 17.20ZM73.64 20.92L74.48 18.88L72.12 20.92Q71.92 21.88 70.36 23.44L70.36 23.44Q68.64 25.16 68.24 26.20L68.24 26.20L66.48 28.20L64.52 32.56Q65.76 31.64 66.12 30.36L66.12 30.36Q67.20 29.72 68.54 28.06Q69.88 26.40 70.56 25.60L70.56 25.60Q70.92 25.08 71.06 24.84Q71.20 24.60 71.44 24.08L71.44 24.08L72.68 22.32L73.64 20.92ZM98.00 26.36L98.00 26.36Q98.08 26.40 97.92 26.72L97.92 26.72L95.52 28.72L91.32 31.28Q91.12 32 91.00 32.38Q90.88 32.76 90.60 33.28L90.60 33.28Q90.60 33.56 90.48 34.16Q90.36 34.76 90.36 35.12L90.36 35.12Q89.84 36.24 89.52 39Q89.20 41.76 88.40 42.92L88.40 42.92Q88.32 42.92 88.20 42.64L88.20 42.64Q88.20 41.84 88.52 40.14Q88.84 38.44 88.88 37.96L88.88 37.96Q89.20 36.80 89.52 35.70Q89.84 34.60 90.16 33.52Q90.48 32.44 90.56 31.60L90.56 31.60Q90.24 31.48 89.96 31.48L89.96 31.48Q89.44 31.48 88.72 31.92L88.72 31.92Q87.08 32.92 86.52 32.92L86.52 32.92Q85.80 33.20 84.84 33.34Q83.88 33.48 83.08 33.48L83.08 33.48L81.80 36.36Q81.92 36.56 81.98 36.60Q82.04 36.64 82.08 36.64L82.08 36.64Q81.96 36.84 81.84 37L81.84 37Q81.60 37.32 81.32 37.40L81.32 37.40Q81.24 37.68 80.88 38.18Q80.52 38.68 80.40 39.04L80.40 39.04Q80.16 39.68 79.72 39.68L79.72 39.68Q79.52 39.56 79.46 39.42Q79.40 39.28 79.36 39.20L79.36 39.20L81.20 35.48L82.16 33.40Q81.64 33.16 81.16 32.88L81.16 32.88Q81.04 32.64 81.16 32.38Q81.28 32.12 81.36 31.80Q81.44 31.48 81.92 31.48L81.92 31.48Q82.36 31.56 82.84 31.64L82.84 31.64Q83.04 31.64 83.16 31.52L83.16 31.52L85.96 27.32L86.44 26.96L88.96 22.76Q89.20 22.36 89.66 21.90Q90.12 21.44 90.56 21.04L90.56 21.04Q90.56 20.88 91.68 19.68L91.68 19.68Q92.04 19.28 92.84 18.48L92.84 18.48Q93.12 18.44 93.16 18.48L93.16 18.48L93.52 19.80L93.60 20.96Q93.60 21.60 93.24 22.08L93.24 22.08Q92.92 24.12 92.60 26.12L92.60 26.12Q92.12 27.56 91.84 29L91.84 29Q91.84 29.16 92.12 29.32L92.12 29.32L93.96 28.64L97.64 26.36Q97.80 26.36 98.00 26.36ZM92.40 20.40L92.40 20.40L91.04 21.64Q90.84 22.04 90.12 22.84Q89.40 23.64 89.24 24.20L89.24 24.20Q88.92 24.52 88.56 25.08L88.56 25.08Q88.04 25.92 87.88 26.12Q87.72 26.32 87.56 26.60Q87.40 26.88 87.36 27.16L87.36 27.16L85.20 30.16L84.52 31.48Q84.60 31.52 84.76 31.52L84.76 31.52L86.92 31.20L90.92 29.96Q92.40 25.32 92.40 20.40ZM107.68 33.36L107.68 33.36Q107.68 34.04 107.34 35.04Q107.00 36.04 107.00 36.08L107.00 36.08Q105.88 37.84 104.60 39.28L104.60 39.28Q103.16 40.88 101.56 42L101.56 42L97.28 43.92L97.04 44.56Q96.84 44.76 96.72 44.88L96.72 44.88L94.48 50.12L89.96 59.76Q89.80 60.16 89.76 60.52L89.76 60.52Q89.56 60.80 88.80 62.56L88.80 62.56Q88.28 63.76 87.52 64.20L87.52 64.20Q87.20 63.76 87.20 63.04L87.20 63.04Q87.20 62.32 87.62 60.92Q88.04 59.52 88.04 58.88L88.04 58.88L89.00 56.08L89.72 54.16L91.84 47.64L92.92 45L95.84 38.80Q96.88 37.32 97.44 36.60L97.44 36.60Q98.40 35.36 99.44 34.64L99.44 34.64Q99.60 34.44 100.16 34Q100.72 33.56 100.84 33.20Q100.96 32.84 101.52 32Q102.08 31.16 102.08 30.76L102.08 30.76Q101.32 30.76 100.92 31.08Q100.52 31.40 99.88 31.48L99.88 31.48Q100.08 31.36 99.84 31.08L99.84 31.08Q99.76 30.92 99.72 30.76L99.72 30.76L102.08 30Q102.60 29.72 103.18 29.40Q103.76 29.08 104.24 28.68L104.24 28.68Q104.40 28.84 104.40 29.16L104.40 29.16L102.76 32.52Q103.88 32.12 104.48 31.92L104.48 31.92Q105.60 31.52 106.36 31.52L106.36 31.52Q106.60 31.52 107.00 31.60L107.00 31.60Q107.16 31.92 107.32 32.04L107.32 32.04Q107.68 32.72 107.68 33.36ZM105.88 33.24L105.88 33.24Q105.44 32.88 104.84 32.88L104.84 32.88Q104.08 32.88 103.28 33.28L103.28 33.28Q102.72 33.52 102.20 33.76L102.20 33.76L101.16 35.60Q100.36 36.84 99.16 39.76L99.16 39.76Q98.32 41.84 98.00 42.48L98.00 42.48L98.04 42.60L101.64 41.12Q102.92 40.16 103.96 38.92Q105.00 37.68 105.52 36.32L105.52 36.32Q105.80 35.44 105.84 34.54Q105.88 33.64 105.88 33.24ZM99.84 35.12L99.84 35.12Q97.72 36.76 96.20 39.48L96.20 39.48Q95.28 41.12 93.80 44.84L93.80 44.84Q93.44 46.20 92.56 48.32L92.56 48.32Q92.12 49.36 91.68 50.44L91.68 50.44Q91.20 50.92 91.16 51.88Q91.12 52.84 90.92 53.08L90.92 53.08Q90.36 53.44 90.48 54.16L90.48 54.16Q90.28 54.40 90.16 54.56L90.16 54.56Q90.16 55.12 89.72 56.20Q89.28 57.28 89.28 57.88L89.28 57.88Q89.08 58.36 88.76 59.32Q88.44 60.28 88.32 60.72L88.32 60.72Q88.36 61.12 88.32 61.42Q88.28 61.72 88.20 61.96L88.20 61.96L88.80 61.12Q89.28 60 89.52 59.40L89.52 59.40Q90.28 57.52 90.28 57.20L90.28 57.20Q90.48 57 90.66 56.58Q90.84 56.16 91.00 55.76L91.00 55.76Q92.68 51.84 94.32 47.96L94.32 47.96Q95.08 46.24 95.88 44.56L95.88 44.56Q97.52 40.44 99.16 36.36L99.16 36.36Q99.32 36.16 99.54 35.70Q99.76 35.24 99.84 35.12ZM116.84 27.96L116.84 27.96Q116.52 28.68 115.72 28.68L115.72 28.68L114.04 26.92L114.04 26.68L114.84 25.64L115.36 25.60L115.64 26.20Q116.32 26.40 116.60 26.72Q116.88 27.04 116.88 27.52L116.88 27.52Q116.88 27.80 116.84 27.96ZM112.08 40.68L113.68 40.16Q113.16 41.04 112.16 41.48L112.16 41.48Q111.68 41.68 110.16 42.04L110.16 42.04L109.72 42.04Q109.56 41.96 109.36 41.76L109.36 41.76Q109.32 41.72 108.72 41L108.72 41Q108.64 40.68 108.60 40.38Q108.56 40.08 108.56 39.84L108.56 39.84Q108.56 38.44 109.48 36.68L109.48 36.68Q110.28 35.28 111.08 33.88L111.08 33.88Q111.36 33.80 111.60 33.56Q111.84 33.32 112.00 33.24L112.00 33.24L112.20 33.96L111.04 35.76Q110.80 36 110.80 36.60L110.80 36.60Q110.20 37.68 110.20 38.88L110.20 38.88Q110.20 39.52 110.28 39.84L110.28 39.84Q110.52 40.44 110.80 40.56L110.80 40.56L112.08 40.68ZM124.72 36.16L124.72 36.16Q124.20 36.68 122.92 37.28Q121.64 37.88 121.16 38.52L121.16 38.52Q121.04 39.48 121 39.78Q120.96 40.08 120.72 40.48L120.72 40.48Q120.60 40.84 120.12 41.04L120.12 41.04Q119.96 41.12 119.28 41.28L119.28 41.28Q118.92 41.76 118.80 41.84L118.80 41.84Q118.52 42.08 118.08 42.20L118.08 42.20Q117.72 42.36 117.28 42.36L117.28 42.36Q116.76 42.36 116.28 42.20Q115.80 42.04 115.16 41.68L115.16 41.68L115.04 39.88L115.92 38.56Q116.20 38.20 117.10 38.02Q118 37.84 119.16 37.64L119.16 37.64Q119.16 37.04 118.76 34.84L118.76 34.84Q118.56 33.76 118.56 33.04L118.56 33.04Q118.52 32.68 118.52 32.48L118.52 32.48Q118.52 31.44 118.88 30.46Q119.24 29.48 119.92 28.88L119.92 28.88L121.60 28.52Q122.16 28.76 122.48 29.52L122.48 29.52Q122.72 30.28 123 31.04L123 31.04Q123.08 31.60 123.16 32.16L123.16 32.16Q123.16 32.44 123.08 32.52L123.08 32.52L121.84 33.04L121.80 32.72Q121.80 31.92 121.50 31.28Q121.20 30.64 120.60 30.16L120.60 30.16Q120.40 30.24 120.20 30.48L120.20 30.48Q120.20 30.52 120.14 30.68Q120.08 30.84 120.08 31.32L120.08 31.32Q120.08 31.64 120.16 32.42Q120.24 33.20 120.24 33.28L120.24 33.28Q120.52 33.92 120.78 35.32Q121.04 36.72 121.16 37.12L121.16 37.12Q121.44 37.24 121.70 37.14Q121.96 37.04 122.24 36.92L122.24 36.92Q122.76 36.92 123.20 36.64L123.20 36.64Q123.92 36.16 124 36.12L124 36.12Q124.20 36.12 124.40 36.12Q124.60 36.12 124.72 36.16ZM119.28 38.88L119.28 38.88L116.68 39.28L115.88 39.52Q115.80 39.68 115.76 39.84L115.76 39.84Q115.84 40.08 116.32 40.30Q116.80 40.52 117 40.68Q117.20 40.84 117.60 40.92Q118 41 118.08 41L118.08 41L118.92 40.92Q119.20 40.64 119.22 40.04Q119.24 39.44 119.28 38.88Z" fill="#ff8433"></path></svg>